<?xml version="1.0" encoding="UTF-8"?>
<svg width="15px" height="22px" viewBox="0 0 15 22" version="1.1" xmlns="http://www.w3.org/2000/svg" xmlns:xlink="http://www.w3.org/1999/xlink">
    <title>create</title>
    <g id="Symbols" stroke="none" stroke-width="1" fill="none" fill-rule="evenodd">
        <g id="create" fill="#FFFFFF">
            <path d="M7.49993159,14.9993615 C8.64589509,14.9993615 9.62658592,14.5913788 10.4425057,13.7757783 C11.2582887,12.9601777 11.6662258,11.9789852 11.6662258,10.8331129 L11.6662258,4.16670467 C11.6662258,3.02083238 11.258608,2.04005035 10.4425057,1.22403933 C9.62658592,0.408210732 8.64589509,0 7.49993159,0 C6.35410491,0 5.37327727,0.408210732 4.55731186,1.22403933 C3.74130084,2.03991353 3.33336374,3.02083238 3.33336374,4.16670467 L3.33336374,10.8331129 C3.33336374,11.9789396 3.74148326,12.9601777 4.55731186,13.7757783 C5.37314045,14.5913788 6.35410491,14.9993615 7.49993159,14.9993615 Z" id="Path" fill-rule="nonzero"></path>
            <path d="M14.7521366,8.58058867 C14.5876848,8.41563523 14.391948,8.33313571 14.1662486,8.33313571 C13.9407773,8.33313571 13.7454965,8.41563523 13.5803606,8.58058867 C13.4155896,8.7454965 13.3331357,8.94077729 13.3331357,9.16638544 L13.3331357,10.8331129 C13.3331357,12.4390489 12.7622518,13.8126271 11.6207576,14.9540757 C10.4796282,16.0955699 9.10586754,16.666317 7.49988599,16.666317 C5.89395004,16.666317 4.52032617,16.0955699 3.37878636,14.9540757 C2.23738337,13.8129464 1.66672747,12.4390945 1.66672747,10.8331129 L1.66672747,9.16638544 C1.66672747,8.94077729 1.58422795,8.7454965 1.41936573,8.58058867 C1.25441229,8.41563523 1.05931392,8.33313571 0.833477749,8.33313571 C0.607641581,8.33313571 0.412315186,8.41563523 0.247452958,8.58058867 C0.0824539161,8.7454965 0,8.94077729 0,9.16638544 L0,10.8331129 C0,12.751489 0.640294791,14.4203599 1.92051953,15.839452 C3.20078988,17.2585897 4.78278318,18.0723205 6.66654505,18.2805075 L6.66654505,19.9994071 L3.33331813,19.9994071 C3.10761878,19.9994071 2.91233799,20.0819979 2.74743016,20.2469513 C2.58247672,20.4117679 2.4999772,20.6071399 2.4999772,20.8328393 C2.4999772,21.0581738 2.58247672,21.2539106 2.74743016,21.4187273 C2.91233799,21.5835439 3.10761878,21.6662714 3.33331813,21.6662714 L11.6662258,21.6662714 C11.8918796,21.6662714 12.087434,21.5835895 12.2521138,21.4187273 C12.4172497,21.2539562 12.4997948,21.0582194 12.4997948,20.8328393 C12.4997948,20.6071855 12.4172497,20.4118135 12.2521138,20.2469513 C12.0874796,20.0819979 11.8919252,19.9994071 11.6662258,19.9994071 L8.33340934,19.9994071 L8.33340934,18.2805075 C10.216852,18.0723205 11.7987085,17.2585897 13.0791156,15.839452 C14.3595228,14.4203599 15,12.751489 15,10.8331129 L15,9.16638544 C15,8.9408229 14.9173181,8.74567892 14.7521366,8.58058867 Z" id="Path" fill-rule="nonzero"></path>
        </g>
    </g>
</svg>