<?xml version="1.0" encoding="UTF-8"?>
<svg width="22px" height="24px" viewBox="0 0 22 24" version="1.1" xmlns="http://www.w3.org/2000/svg" xmlns:xlink="http://www.w3.org/1999/xlink">
    <title>google play icon</title>
    <defs>
        <linearGradient x1="60.1573701%" y1="74.5430486%" x2="33.5579439%" y2="-14.2723873%" id="linearGradient-1">
            <stop stop-color="#D6FFA1" offset="0%"></stop>
            <stop stop-color="#93E2A7" offset="32.64%"></stop>
            <stop stop-color="#00A3B5" offset="100%"></stop>
        </linearGradient>
        <linearGradient x1="-32.1721676%" y1="-62.123331%" x2="80.1668869%" y2="89.9234152%" id="linearGradient-2">
            <stop stop-color="#FF177B" offset="0%"></stop>
            <stop stop-color="#FFA976" offset="67.21%"></stop>
            <stop stop-color="#FFEC73" offset="100%"></stop>
        </linearGradient>
        <linearGradient x1="50.2286965%" y1="74.6634124%" x2="36.0362223%" y2="-29.3364075%" id="linearGradient-3">
            <stop stop-color="#63FFD4" offset="0%"></stop>
            <stop stop-color="#32A0BA" offset="48.54%"></stop>
            <stop stop-color="#1262A9" offset="83.49%"></stop>
            <stop stop-color="#064AA2" offset="100%"></stop>
        </linearGradient>
        <linearGradient x1="119.507988%" y1="41.4378536%" x2="-23.112411%" y2="56.5191843%" id="linearGradient-4">
            <stop stop-color="#FF4521" offset="0%"></stop>
            <stop stop-color="#D43E65" offset="34.11%"></stop>
            <stop stop-color="#9F36B9" offset="79.35%"></stop>
            <stop stop-color="#8A33DB" offset="100%"></stop>
        </linearGradient>
    </defs>
    <g id="Welcome" stroke="none" stroke-width="1" fill="none" fill-rule="evenodd">
        <g id="VoiceMap-Mailer-Template-Welcome" transform="translate(-294, -952)">
            <g id="Group-8" transform="translate(129, 730)">
                <g id="Group-18" transform="translate(0, 202)">
                    <g id="Google-Play" transform="translate(157, 0)">
                        <g id="icon-+-Google-play-+-Get-it-on" transform="translate(8.8244, 10.5566)">
                            <g id="google-play-icon" transform="translate(0, 9.9642)">
                                <polygon id="Shape" points="11.8870229 11.25 15.3648855 7.70833333 11.8870229 11.25 0.67480916 -7.51713506e-16 11.8870229 11.25 0.67480916 22.5 11.8870229 11.25 15.4167939 14.7916667"></polygon>
                                <path d="M15.3648855,7.70833333 L1.7129771,0.208333333 C1.34961832,0 0.986259542,-0.0520833333 0.67480916,0.0520833333 L11.8870229,11.25 L15.3648855,7.70833333 L15.3648855,7.70833333 Z" id="Shape" fill="url(#linearGradient-1)"></path>
                                <path d="M15.4167939,14.7916667 L20.0885496,12.2395833 C21.0229008,11.71875 21.0229008,10.8854167 20.0885496,10.3645833 L15.4167939,7.76041667 L11.8870229,11.25 L15.4167939,14.7916667 L15.4167939,14.7916667 Z" id="Shape" fill="url(#linearGradient-2)"></path>
                                <path d="M0.67480916,0 C0.259541985,0.15625 0,0.572916667 0,1.19791667 L0,21.3020833 C0,21.9270833 0.259541985,22.34375 0.67480916,22.5 L11.8870229,11.25 L0.67480916,0 L0.67480916,0 Z" id="Shape" fill="url(#linearGradient-3)"></path>
                                <path d="M0.67480916,22.5 C0.986259542,22.6041667 1.34961832,22.5520833 1.7129771,22.34375 L15.3648855,14.7916667 L11.8870229,11.25 L0.67480916,22.5 L0.67480916,22.5 Z" id="Shape" fill="url(#linearGradient-4)"></path>
                            </g>
                        </g>
                    </g>
                </g>
            </g>
        </g>
    </g>
</svg>