<?xml version="1.0" encoding="UTF-8"?>
<svg width="16px" height="17px" viewBox="0 0 16 17" version="1.1" xmlns="http://www.w3.org/2000/svg" xmlns:xlink="http://www.w3.org/1999/xlink">
    <title>google play icon</title>
    <defs>
        <linearGradient x1="60.1573701%" y1="75.0152424%" x2="33.5579439%" y2="-15.50895%" id="linearGradient-1">
            <stop stop-color="#D6FFA1" offset="0%"></stop>
            <stop stop-color="#93E2A7" offset="32.64%"></stop>
            <stop stop-color="#00A3B5" offset="100%"></stop>
        </linearGradient>
        <linearGradient x1="-32.1721676%" y1="-64.2805176%" x2="80.1668869%" y2="90.6915181%" id="linearGradient-2">
            <stop stop-color="#FF177B" offset="0%"></stop>
            <stop stop-color="#FFA976" offset="67.21%"></stop>
            <stop stop-color="#FFEC73" offset="100%"></stop>
        </linearGradient>
        <linearGradient x1="50.2243796%" y1="74.6634124%" x2="36.2998059%" y2="-29.3364075%" id="linearGradient-3">
            <stop stop-color="#63FFD4" offset="0%"></stop>
            <stop stop-color="#32A0BA" offset="48.54%"></stop>
            <stop stop-color="#1262A9" offset="83.49%"></stop>
            <stop stop-color="#064AA2" offset="100%"></stop>
        </linearGradient>
        <linearGradient x1="119.507988%" y1="41.2731229%" x2="-23.112411%" y2="56.6446096%" id="linearGradient-4">
            <stop stop-color="#FF4521" offset="0%"></stop>
            <stop stop-color="#D43E65" offset="34.11%"></stop>
            <stop stop-color="#9F36B9" offset="79.35%"></stop>
            <stop stop-color="#8A33DB" offset="100%"></stop>
        </linearGradient>
    </defs>
    <g id="Symbols" stroke="none" stroke-width="1" fill="none" fill-rule="evenodd">
        <g id="Group-18" transform="translate(-116, -14)">
            <g id="Google-Play" transform="translate(110.515, 0)">
                <g id="icon-+-Google-play-+-Get-it-on" transform="translate(6.1956, 7.4827)">
                    <g id="google-play-icon" transform="translate(0, 7.0628)">
                        <polygon id="Shape" points="8.34582446 7.97419355 10.7876159 5.46379928 8.34582446 7.97419355 0.473780428 -5.32827466e-16 8.34582446 7.97419355 0.473780428 15.9483871 8.34582446 7.97419355 10.8240605 10.4845878"></polygon>
                        <path d="M10.7876159,5.46379928 L1.20267339,0.147670251 C0.947560856,0 0.692448318,-0.0369175627 0.473780428,0.0369175627 L8.34582446,7.97419355 L10.7876159,5.46379928 L10.7876159,5.46379928 Z" id="Shape" fill="url(#linearGradient-1)"></path>
                        <path d="M10.8240605,10.4845878 L14.1040789,8.67562724 C14.7600826,8.30645161 14.7600826,7.71577061 14.1040789,7.34659498 L10.8240605,5.50071685 L8.34582446,7.97419355 L10.8240605,10.4845878 L10.8240605,10.4845878 Z" id="Shape" fill="url(#linearGradient-2)"></path>
                        <path d="M0.473780428,0 C0.182223241,0.110752688 0,0.40609319 0,0.849103943 L0,15.0992832 C0,15.5422939 0.182223241,15.8376344 0.473780428,15.9483871 L8.34582446,7.97419355 L0.473780428,0 L0.473780428,0 Z" id="Shape" fill="url(#linearGradient-3)"></path>
                        <path d="M0.473780428,15.9483871 C0.692448318,16.0222222 0.947560856,15.9853047 1.20267339,15.8376344 L10.7876159,10.4845878 L8.34582446,7.97419355 L0.473780428,15.9483871 L0.473780428,15.9483871 Z" id="Shape" fill="url(#linearGradient-4)"></path>
                    </g>
                </g>
            </g>
        </g>
    </g>
</svg>