<?xml version="1.0" encoding="UTF-8"?>
<svg width="16px" height="20px" viewBox="0 0 16 20" version="1.1" xmlns="http://www.w3.org/2000/svg" xmlns:xlink="http://www.w3.org/1999/xlink">
    <title>Group</title>
    <g id="Symbols" stroke="none" stroke-width="1" fill="none" fill-rule="evenodd">
        <g id="Group-18" transform="translate(-7, -7)" fill="#FFFFFF">
            <g id="Group" transform="translate(7.7892, 7.4131)">
                <path d="M12.5761574,9.96964636 C12.5551199,7.60123992 14.4905723,6.44900247 14.579075,6.39535876 C13.4829473,4.77649454 11.7839857,4.5553061 11.1869553,4.53766981 C9.76003065,4.38555683 8.37590651,5.40258274 7.64902371,5.40258274 C6.90763228,5.40258274 5.7882908,4.55236671 4.58189749,4.57735146 C3.02947315,4.60160135 1.57715841,5.51207469 0.780634147,6.92591708 C-0.863194619,9.80871524 0.362785352,14.0450985 1.93769808,16.375293 C2.72551717,17.5165077 3.64609029,18.7907295 4.85103274,18.7459039 C6.02985963,18.6966693 6.47019682,17.9846042 7.89276884,17.9846042 C9.3022831,17.9846042 9.7157793,18.7459039 10.944661,18.717245 C12.2098143,18.6966693 13.0063386,17.5708863 13.7665912,16.4193837 C14.6770083,15.111359 15.042626,13.8231752 15.0571346,13.7570391 C15.0273919,13.7467513 12.6000967,12.8083538 12.5761574,9.96964636 L12.5761574,9.96964636 Z" id="Shape"></path>
                <path d="M10.2547752,3.00478249 C10.8888027,2.20159656 11.322611,1.10888158 11.2021893,0 C10.2845179,0.0411513375 9.13688461,0.642989649 8.47601612,1.42853929 C7.89131798,2.12076357 7.36900699,3.25536474 7.50393733,4.32236013 C8.53477611,4.40025373 9.5931813,3.79547604 10.2547752,3.00478249 L10.2547752,3.00478249 Z" id="Shape"></path>
            </g>
        </g>
    </g>
</svg>