<?xml version="1.0" encoding="UTF-8"?>
<svg width="22px" height="27px" viewBox="0 0 22 27" version="1.1" xmlns="http://www.w3.org/2000/svg" xmlns:xlink="http://www.w3.org/1999/xlink">
    <title>Group</title>
    <g id="Welcome" stroke="none" stroke-width="1" fill="none" fill-rule="evenodd">
        <g id="VoiceMap-Mailer-Template-Welcome" transform="translate(-140, -942)" fill="#FFFFFF">
            <g id="Group-8" transform="translate(129, 730)">
                <g id="Group-18" transform="translate(0, 202)">
                    <g id="Group" transform="translate(11.0942, 10.4584)">
                        <path d="M17.9123191,14.0651868 C17.8823552,10.7238367 20.6390352,9.09825894 20.7650903,9.02257835 C19.2038671,6.73868313 16.7840229,6.42663026 15.9336677,6.40174897 C13.9012878,6.18714783 11.929869,7.62196898 10.8945642,7.62196898 C9.83859455,7.62196898 8.24430775,6.42248338 6.52603235,6.45773188 C4.31490224,6.49194365 2.24635903,7.77644033 1.11186331,9.77109053 C-1.22945483,13.838145 0.516718008,19.8148386 2.7598785,23.1022792 C3.88197537,24.7123061 5.19315485,26.5099794 6.90936378,26.4467395 C8.58837613,26.3772792 9.21555182,25.3726971 11.2417323,25.3726971 C13.2493144,25.3726971 13.8382603,26.4467395 15.5885661,26.4063074 C17.3905338,26.3772792 18.5250295,24.7890234 19.6078633,23.1644824 C20.9045775,21.31912 21.4253296,19.501749 21.4459944,19.4084441 C21.4036316,19.39393 17.946416,18.070038 17.9123191,14.0651868 L17.9123191,14.0651868 Z" id="Shape"></path>
                        <path d="M14.6059564,4.23915005 C15.5090067,3.10601456 16.1268832,1.56441121 15.9553657,0 C14.6483191,0.0580563469 13.0137361,0.907130421 12.0724559,2.01538462 C11.2396658,2.99197531 10.4957342,4.59267173 10.6879165,6.09798987 C12.1561482,6.20788224 13.663643,5.35466129 14.6059564,4.23915005 L14.6059564,4.23915005 Z" id="Shape"></path>
                    </g>
                </g>
            </g>
        </g>
    </g>
</svg>