<?xml version="1.0" encoding="UTF-8"?>
<svg width="21px" height="16px" viewBox="0 0 21 16" version="1.1" xmlns="http://www.w3.org/2000/svg" xmlns:xlink="http://www.w3.org/1999/xlink">
    <title>ticket (1)</title>
    <g id="Symbols" stroke="none" stroke-width="1" fill="none" fill-rule="evenodd">
        <g id="ticket-(1)" fill="#FFFFFF">
            <path d="M20.5624863,5.77779167 C20.8043145,5.77779167 21,5.579 21,5.33333333 L21,1.77779167 C21,0.797291667 20.215166,0 19.2499863,0 L1.75001367,0 C0.784833984,0 0,0.797291667 0,1.77779167 L0,5.33333333 C0,5.579 0.195685547,5.77779167 0.437513672,5.77779167 C1.64361914,5.77779167 2.625,6.77475 2.625,8 C2.625,9.22525 1.64361914,10.2222083 0.437513672,10.2222083 C0.195685547,10.2222083 0,10.421 0,10.6666667 L0,14.2222083 C0,15.2027083 0.784833984,16 1.75001367,16 L19.2500273,16 C20.215166,16 21,15.2027083 21,14.2222083 L21,10.6666667 C21,10.421 20.8043145,10.2222083 20.5624863,10.2222083 C19.3563809,10.2222083 18.375,9.22525 18.375,8 C18.375,6.77475 19.3563809,5.77779167 20.5624863,5.77779167 Z M6.12498633,13.7777917 C6.12498633,14.0234583 5.92930078,14.22225 5.68747266,14.22225 C5.44564453,14.22225 5.24995898,14.0234583 5.24995898,13.7777917 L5.24995898,12.8889167 C5.24995898,12.64325 5.44564453,12.4444583 5.68747266,12.4444583 C5.92930078,12.4444583 6.12498633,12.64325 6.12498633,12.8889167 L6.12498633,13.7777917 Z M6.12498633,10.2222083 C6.12498633,10.467875 5.92930078,10.6666667 5.68747266,10.6666667 C5.44564453,10.6666667 5.24995898,10.467875 5.24995898,10.2222083 L5.24995898,9.33333333 C5.24995898,9.08766667 5.44564453,8.888875 5.68747266,8.888875 C5.92930078,8.888875 6.12498633,9.08766667 6.12498633,9.33333333 L6.12498633,10.2222083 Z M6.12498633,6.66666667 C6.12498633,6.91233333 5.92930078,7.111125 5.68747266,7.111125 C5.44564453,7.111125 5.24995898,6.91233333 5.24995898,6.66666667 L5.24995898,5.77779167 C5.24995898,5.532125 5.44564453,5.33333333 5.68747266,5.33333333 C5.92930078,5.33333333 6.12498633,5.532125 6.12498633,5.77779167 L6.12498633,6.66666667 Z M6.12498633,3.111125 C6.12498633,3.35679167 5.92930078,3.55558333 5.68747266,3.55558333 C5.44564453,3.55558333 5.24995898,3.35679167 5.24995898,3.111125 L5.24995898,2.111125 C5.24995898,1.86545833 5.44564453,1.66666667 5.68747266,1.66666667 C5.92930078,1.66666667 6.12498633,1.86545833 6.12498633,2.111125 L6.12498633,3.111125 Z M15.3124863,11.5555417 L9.1875,11.5555417 C8.94567188,11.5555417 8.74998633,11.35675 8.74998633,11.1110833 C8.74998633,10.8654167 8.94567188,10.666625 9.1875,10.666625 L15.3124863,10.666625 C15.5543145,10.666625 15.75,10.8654167 15.75,11.1110833 C15.75,11.3567917 15.5543145,11.5555417 15.3124863,11.5555417 Z M15.3124863,8.44445833 L9.1875,8.44445833 C8.94567188,8.44445833 8.74998633,8.24566667 8.74998633,8 C8.74998633,7.75433333 8.94567188,7.55554167 9.1875,7.55554167 L15.3124863,7.55554167 C15.5543145,7.55554167 15.75,7.75433333 15.75,8 C15.75,8.24566667 15.5543145,8.44445833 15.3124863,8.44445833 Z M15.3124863,5.33333333 L9.1875,5.33333333 C8.94567188,5.33333333 8.74998633,5.13454167 8.74998633,4.888875 C8.74998633,4.64320833 8.94567188,4.44441667 9.1875,4.44441667 L15.3124863,4.44441667 C15.5543145,4.44441667 15.75,4.64320833 15.75,4.888875 C15.75,5.13454167 15.5543145,5.33333333 15.3124863,5.33333333 Z" id="Shape" fill-rule="nonzero"></path>
        </g>
    </g>
</svg>